<?xml version="1.0" encoding="utf-8"?>
<!-- Generator: Adobe Illustrator 24.3.0, SVG Export Plug-In . SVG Version: 6.00 Build 0)  -->
<svg version="1.1" xmlns="http://www.w3.org/2000/svg" xmlns:xlink="http://www.w3.org/1999/xlink" x="0px" y="0px"
	 viewBox="0 0 1046 600" style="enable-background:new 0 0 1046 600;" xml:space="preserve">
<style type="text/css">
	.st0{opacity:0.5;fill:#FFFF00;enable-background:new    ;}
	.st1{fill:none;stroke:#999999;stroke-width:1.3;}
	.st2{enable-background:new    ;}
	.st3{fill:none;stroke:#000000;stroke-width:1.3;}
	.st4{font-family:'ArialMT';}
	.st5{font-size:31.3586px;}
	.st6{letter-spacing:16;}
	.st7{letter-spacing:2;}
	.st8{letter-spacing:10;}
	.st9{font-size:47.1917px;}
	.st10{letter-spacing:5;}
	.st11{letter-spacing:17;}
	.st12{fill:#FFFFFF;stroke:#000000;stroke-width:1.3;}
	.st13{fill:none;}
	.st14{fill:#FFFFFF;stroke:#D20000;stroke-miterlimit:10;}
	.st15{font-family:'MyriadPro-Regular';}
	.st16{font-size:24px;}
	.st17{fill:#FF00E2;stroke:#999999;stroke-width:1.3;}
	.st18{fill:#999999;stroke:#1800D0;stroke-width:4;}
	.st19{fill:#FFFFFF;stroke:#000000;stroke-miterlimit:10;}
	.st20{fill:#FFFFFF;stroke:#F400AC;stroke-miterlimit:10;}
	.st21{fill:#FFFFFF;stroke:#0000FF;stroke-miterlimit:10;}
</style>
<g id="Coords">
	<rect x="647.5" y="117.3" class="st0" width="388.6" height="390.2"/>
	<rect x="204.7" y="118.7" class="st0" width="195.2" height="195.2"/>
	<g>
		<rect x="11.4" y="118.9" class="st1" width="388.6" height="388.6"/>
		<line class="st1" x1="11.4" y1="442.7" x2="400" y2="442.7"/>
		<line class="st1" x1="11.4" y1="377.7" x2="400" y2="377.7"/>
		<line class="st1" x1="11.4" y1="313.2" x2="400" y2="313.2"/>
		<line class="st1" x1="11.4" y1="248.4" x2="400" y2="248.4"/>
		<line class="st1" x1="11.4" y1="183.6" x2="400" y2="183.6"/>
		<line class="st1" x1="335" y1="118.9" x2="335" y2="507.6"/>
		<line class="st1" x1="270.6" y1="118.9" x2="270.6" y2="507.6"/>
		<line class="st1" x1="205.7" y1="118.9" x2="205.7" y2="507.6"/>
		<line class="st1" x1="141" y1="118.9" x2="141" y2="507.6"/>
		<line class="st1" x1="76.3" y1="118.9" x2="76.3" y2="507.6"/>
	</g>
	<g class="st2">
		<path d="M434.7,320.6l-3.5-5.8l-3.5,5.8h-4.8v-1.7c0.9-0.2,1.8-0.4,2.7-0.4l3.8-5.6l-3.7-5.6c-0.9,0-1.8-0.2-2.6-0.4v-1.7h4.8
			l3.3,5.6l3.5-5.6h4.5v1.7c-0.9,0.2-1.8,0.4-2.7,0.4l-3.5,5.5l3.8,5.8c0.9,0,1.7,0.2,2.6,0.4v1.7h-4.8L434.7,320.6L434.7,320.6z"/>
	</g>
	<g class="st2">
		<path d="M210.8,81.4l-5.5,15.2c-1.7,4.8-3.3,6.4-6.7,6.4c-0.6,0-1.4,0-2.1-0.2l0.2-2.6c0.7,0.2,1.4,0.4,2,0.4
			c1.7,0,2.7-0.9,3.8-3.8l0.7-1.8h-0.7l-4.8-13.6c-0.7,0-1.4-0.2-2-0.4v-1.7h7.2V81c-0.6,0.2-1.4,0.4-2,0.4l2.3,6.7
			c0.6,1.4,0.9,2.6,1.4,3.8l0,0c0.2-1.1,0.9-2.9,1.4-4.5l2-6c-0.7,0-1.4-0.2-2-0.4v-1.7h7v1.7C212.3,81.2,211.6,81.4,210.8,81.4z"/>
	</g>
	<polyline class="st3" points="197.9,127.1 205.6,119.5 213.4,127.1 	"/>
	<polyline class="st3" points="390,305.5 397.6,313.2 390,320.9 	"/>
	<line class="st3" x1="397.6" y1="313.2" x2="11.4" y2="313.2"/>
	<line class="st3" x1="205.7" y1="120.2" x2="205.7" y2="506.2"/>
	<polyline class="st3" points="213.3,501 205.6,508.4 197.8,501 	"/>
	<polyline class="st3" points="19,320.9 11.4,313.2 19,305.5 	"/>
	<g class="st2">
		<path d="M129.3,583.4v-1.7c0.7-0.2,1.8-0.4,2.7-0.4v-17c-0.9,0-1.8-0.2-2.7-0.4v-1.7h13.6v4.9h-2c-0.2-0.9-0.4-1.8-0.4-2.6h-5.6v7
			h4.5c0.2-0.7,0.2-1.4,0.4-2.1h1.8v6.4h-1.8c-0.2-0.7-0.4-1.4-0.4-2.1h-4.5v7.6h5.6c0.2-0.7,0.2-1.8,0.4-2.7h2v4.9L129.3,583.4
			L129.3,583.4z"/>
		<path d="M145.9,583.4v-1.7c0.7-0.2,1.8-0.4,2.7-0.4V570c-0.7-0.2-1.8-0.2-2.7-0.4v-1.5c1.7-0.2,3.7-0.4,5.5-0.2v13.6
			c0.9,0,1.8,0.2,2.6,0.4v1.7L145.9,583.4C145.9,583.5,145.9,583.4,145.9,583.4z M150.1,564.7c-1.1,0-1.8-0.7-1.8-1.8
			s0.9-1.8,1.8-1.8s1.8,0.7,1.8,1.8S151.1,564.7,150.1,564.7z"/>
		<path d="M162.6,591.4c-4.1,0-6.6-1.7-6.6-4.8c0-1.8,1.4-3.3,2.6-4.2c-0.9-0.4-1.4-1.4-1.4-2.3c0-1.1,0.7-2.1,1.7-2.6
			c-1.4-0.9-2.3-2.1-2.3-4.2c0-3.1,2.3-5.8,6.6-5.8c0.9,0,1.4,0.2,2.1,0.4h5.2v2.1h-2.6c0.7,0.6,1.4,1.7,1.4,2.9
			c0,3.1-2.1,5.6-6.6,5.6c-0.6,0-1.1,0-1.7-0.2c-0.7,0.4-0.9,0.7-0.9,1.4c0,0.9,0.7,1.1,2.7,1.4l2.9,0.2c3.3,0.2,5.2,1.7,5.2,4.5
			C170.8,588.9,167.5,591.4,162.6,591.4z M164.7,583.4l-2.9-0.2c-0.4,0-0.7,0-0.9,0c-1.4,0.9-2,1.8-2,3.1c0,1.8,1.8,2.9,4.2,2.9
			c3.1,0,4.9-1.4,4.9-3.3C167.8,584.2,167,583.4,164.7,583.4z M162.9,569.6c-2.3,0-3.7,1.4-3.7,3.5c0,2.1,1.4,3.5,3.7,3.5
			c2.1,0,3.7-1.4,3.7-3.5C166.4,570.9,165.3,569.6,162.9,569.6z"/>
		<path d="M184.9,583.4v-10.1c0-2.1-0.6-3.5-2.7-3.5c-2.6,0-4.4,2.6-4.4,6v5.2c0.9,0,1.8,0.2,2.6,0.4v1.7h-7.9v-1.7
			c0.7-0.2,1.7-0.4,2.6-0.4v-18.7c-0.7-0.2-1.8-0.2-2.7-0.4v-1.7c1.7-0.2,3.7-0.4,5.5-0.2v7.3c0,0.9,0,2.1-0.4,3.1l0,0
			c0.9-2.1,2.7-3.5,5.5-3.5c3.5,0,4.8,2.1,4.8,4.9v8.7c0.9,0,1.8,0.2,2.6,0.4v1.7h-5.2C184.9,582.8,184.9,583.4,184.9,583.4z"/>
		<path d="M197.8,583.7c-3.1,0-4.2-1.4-4.2-4.8v-9h-3.1v-2.1h3.1v-5.2l2.7-0.7v5.8h4.4v2.1h-4.4v8c0,2.6,0.6,3.3,2.1,3.3
			c0.7,0,1.4-0.2,2-0.2l0.4,2.3C200.2,583.5,199,583.7,197.8,583.7z"/>
		<path d="M215.1,583.4v-10.1c0-2.1-0.6-3.5-2.7-3.5c-2.6,0-4.4,2.6-4.4,6v5.2c0.9,0,1.8,0.2,2.6,0.4v1.7h-8v-1.7
			c0.7-0.2,1.7-0.4,2.6-0.4v-18.7c-0.7-0.2-1.8-0.2-2.7-0.4v-1.7c1.7-0.2,3.7-0.4,5.5-0.2v7.3c0,0.9,0,2.1-0.4,3.1l0,0
			c0.9-2.1,2.7-3.5,5.5-3.5c3.5,0,4.8,2.1,4.8,4.9v8.7c0.9,0,1.8,0.2,2.6,0.4v1.7h-5.2v0.8H215.1L215.1,583.4z"/>
		<path d="M246.8,574.8v7.7c-2,0.7-4.8,1.4-7,1.4c-6.4,0-10.5-3.8-10.5-10.5c0-6.7,4.1-11.4,11.4-11.4c2,0,3.8,0.4,5.8,0.7v4.9h-2
			c-0.2-1.1-0.4-2-0.4-2.7c-1.1-0.4-2.3-0.6-3.7-0.6c-4.5,0-8,2.7-8,8.4c0,5.2,3.1,8.3,7.9,8.3c1.4,0,2.6-0.2,3.7-0.6v-5.8
			c-0.9,0-1.8-0.2-2.7-0.4v-1.7h7.7v1.7C248.4,574.4,247.6,574.6,246.8,574.8z"/>
		<path d="M261.4,570.4c-3.7-0.6-5.2,1.8-5.2,6.7v4.2c0.9,0,1.8,0.2,2.7,0.4v1.7h-8.4v-1.7c0.7-0.2,1.8-0.4,2.7-0.4v-11.4
			c-0.7-0.2-1.8-0.2-2.7-0.4V568c1.7-0.2,3.7-0.4,5.5-0.2c0,0.9-0.2,2.3-0.4,3.7l0,0c0.7-2.1,2.1-4.4,5.6-4.1
			C261.4,567.5,261.4,570.4,261.4,570.4z"/>
		<path d="M272.5,583.4c0-1.1,0-2.1,0.2-3.1l0,0c-0.7,1.8-2.7,3.5-5.2,3.5s-4.4-1.7-4.4-4.1c0-3.3,3.5-5.2,9.3-5.2v-1.1
			c0-2.1-0.7-3.5-3.3-3.5c-0.9,0-2,0.2-2.9,0.4c0,0.7-0.2,1.7-0.4,2.6H264v-4.4c1.7-0.6,3.5-0.9,5.2-0.9c4.5,0,5.8,2,5.8,5.2v8.3
			c0.7,0.2,1.8,0.2,2.6,0.4v1.7C276.5,583.4,274.2,583.5,272.5,583.4z M272.5,576.2c-4.9,0-6.6,1.4-6.6,2.9c0,1.4,0.9,2.3,2.3,2.3
			c2.6,0,4.2-2.6,4.2-4.9C272.5,576.5,272.5,576.2,272.5,576.2z"/>
		<path d="M290.5,583.4c0-0.9,0-2.1,0.2-3.1l0,0c-0.9,2-2.7,3.5-5.2,3.5c-3.8,0-5.6-2.7-5.6-7.3c0-5.5,3.1-8.7,8-8.7
			c0.9,0,1.7,0,2.6,0.2v-4.9c-0.7-0.2-1.8-0.2-2.7-0.4v-1.8c1.7-0.2,3.7-0.4,5.5-0.2v20.5c0.7,0.2,1.8,0.2,2.6,0.4v1.7
			C294.3,583.4,292.2,583.5,290.5,583.4z M290.4,570.2c-0.9-0.2-1.8-0.4-2.7-0.4c-2.9,0-4.9,1.8-4.9,6.2c0,3.3,1.1,5.2,3.5,5.2
			c2.7,0,4.2-3.3,4.2-6C290.4,575.4,290.4,570.2,290.4,570.2z"/>
		<path d="M310.6,575.5h-10.2c-0.2,4.1,1.4,5.8,4.9,5.8c1.4,0,3.1-0.4,4.4-0.9l0.4,2.1c-1.7,0.6-3.5,0.9-5.5,0.9
			c-4.8,0-7.3-2.6-7.3-8c0-4.5,2.6-8.3,7-8.3c4.4,0,6.2,2.9,6.2,6.4C310.6,574.2,310.6,575,310.6,575.5z M304.4,569.6
			c-2,0-3.5,1.4-3.8,3.8h7.3C307.9,571.1,306.5,569.6,304.4,569.6z"/>
	</g>
	<g class="st2">
		<path d="M759.6,584.5c-6.4,0-9.7-4.1-9.7-10.5c0-6.4,3.5-11.4,10.2-11.4c1.7,0,3.5,0.2,5.2,0.6v5.2h-2c-0.2-1.1-0.4-2-0.4-2.9
			c-1.1-0.4-2-0.4-3.1-0.4c-4.5,0-6.7,3.7-6.7,8.4c0,5.2,2.3,8.3,7.2,8.3c1.7,0,3.7-0.4,4.9-1.1l0.6,2.3
			C763.8,583.9,761.8,584.5,759.6,584.5z"/>
		<path d="M774.3,584.5c-4.2,0-7-2.3-7-7.9c0-4.8,2.9-8.3,7.7-8.3c4.1,0,7,2.1,7,7.9C781.8,580.8,779.1,584.5,774.3,584.5z
			 M774.7,570.5c-2.3,0-4.4,1.7-4.4,5.6c0,3.7,1.4,5.6,4.4,5.6c2.3,0,4.4-1.8,4.4-5.6C778.9,572.7,777.5,570.5,774.7,570.5z"/>
		<path d="M806.2,584.1V574c0-2.1-0.6-3.5-2.6-3.5c-2.1,0-4.4,2.3-4.4,6.2v5.2c0.9,0,1.8,0.2,2.6,0.4v1.7h-5.2v-10.1
			c0-2-0.4-3.5-2.6-3.5c-2.3,0-4.4,2.6-4.4,6.2v5.2c0.9,0,1.8,0.2,2.6,0.4v1.7h-8v-1.7c0.7-0.2,1.8-0.4,2.7-0.4v-11.4
			c-0.7-0.2-1.8-0.2-2.7-0.4v-1.7c1.7-0.2,3.8-0.4,5.5-0.2c0,0.9-0.2,2.3-0.2,3.3l0,0c0.9-2.1,2.9-3.7,5.2-3.7
			c3.3,0,4.2,2.1,4.4,3.5c0.6-1.4,2.3-3.5,5.2-3.5s4.5,1.7,4.5,5.2v8.6c0.9,0,1.8,0.2,2.6,0.4v1.7L806.2,584.1L806.2,584.1z"/>
		<path d="M820.6,584.2c-0.9,0-1.7,0-2.7-0.2v5.6c0.9,0,1.8,0.2,2.7,0.4v1.7h-8.3V590c0.7-0.2,1.7-0.4,2.6-0.4v-19.1
			c-0.7-0.2-1.7-0.2-2.6-0.4v-1.7c1.4-0.2,3.7-0.4,5.2-0.2c0,0.9-0.2,2.3-0.2,3.1l0,0c0.9-2.1,2.7-3.5,5.2-3.5
			c3.7,0,5.6,2.6,5.6,7.3C828.6,581.1,825.7,584.2,820.6,584.2z M822.2,570.5c-2.7,0-4.2,3.3-4.2,6v5.2c0.9,0.2,1.7,0.4,2.7,0.4
			c2.9,0,4.9-1.8,4.9-6.2C825.7,572.6,824.7,570.5,822.2,570.5z"/>
		<path d="M843.1,584.1c0-0.9,0-2.3,0.2-3.3l0,0c-0.9,2.1-2.7,3.7-5.5,3.7c-3.7,0-4.8-2.1-4.8-4.9V571c-0.7-0.2-1.8-0.2-2.6-0.4
			v-1.7c1.4-0.2,3.7-0.4,5.5-0.2v10.1c0,2.1,0.6,3.5,2.7,3.5c2.6,0,4.4-2.6,4.4-6v-5.2c-0.7-0.2-1.7-0.2-2.6-0.4V569
			c1.4-0.2,3.7-0.4,5.2-0.2v13.3c0.7,0.2,1.8,0.2,2.6,0.4v1.7C846.9,584.1,844.7,584.2,843.1,584.1z"/>
		<path d="M856.2,584.5c-3.1,0-4.2-1.4-4.2-4.8v-9H849v-2.1h3.1v-5.2l2.7-0.7v5.8h4.4v2.1h-4.4v8c0,2.6,0.6,3.3,2.1,3.3
			c0.7,0,1.4-0.2,2-0.2l0.4,2.3C858.4,584.2,857.2,584.5,856.2,584.5z"/>
		<path d="M874.7,576.2h-10.2c-0.2,4.1,1.4,5.8,4.9,5.8c1.4,0,3.1-0.4,4.4-0.9l0.4,2.1c-1.7,0.6-3.5,0.9-5.5,0.9
			c-4.8,0-7.3-2.6-7.3-8c0-4.5,2.6-8.3,7-8.3s6.2,2.9,6.2,6.4C875,575,875,575.7,874.7,576.2z M868.4,570.4c-2,0-3.5,1.4-3.8,3.8
			h7.3C871.9,571.9,870.6,570.4,868.4,570.4z"/>
		<path d="M887.8,571.1c-3.7-0.6-5.2,1.8-5.2,6.7v4.2c0.9,0,1.8,0.2,2.7,0.4v1.7h-8.3v-1.7c0.7-0.2,1.8-0.4,2.7-0.4v-11.4
			c-0.7-0.2-1.8-0.2-2.7-0.4v-1.7c1.7-0.2,3.7-0.4,5.5-0.2c0,0.9-0.2,2.3-0.4,3.7l0,0c0.7-2.1,2.1-4.4,5.6-4.1L887.8,571.1z"/>
	</g>
	<g class="st2">
		<path d="M65.9,340.8v-2.7h9.8v2.6L65.9,340.8L65.9,340.8z"/>
		<path d="M82.9,348.9v-2.3l4.5-4.1c4.1-3.3,4.9-4.8,4.9-6.7c0-2-1.4-3.5-3.8-3.5c-1.8,0-3.5,0.9-4.5,1.7l-0.6-2.6
			c1.7-0.9,3.5-1.7,5.6-1.7c4.2,0,6.4,2.3,6.4,5.6c0,2.7-1.4,4.8-4.9,7.7l-3.8,3.3h-0.2c1.4-0.2,4.9-0.2,9.5-0.2v2.7L82.9,348.9
			L82.9,348.9z"/>
	</g>
	<text transform="matrix(1 0 0 1 108.7256 348.9209)" class="st4 st5 st6"> </text>
	<g class="st2">
		<path d="M133.1,340.8v-2.7h9.8v2.6L133.1,340.8L133.1,340.8z"/>
		<path d="M150.7,348.9v-2.6h5.6v-13.2l-5.5,3.5l-0.9-2.3l7-4.2h2.3v16.3h4.9v2.6L150.7,348.9L150.7,348.9z"/>
	</g>
	<text transform="matrix(1 0 0 1 185.0312 348.9209)" class="st4 st5 st7"> </text>
	<g class="st2">
		<path d="M222.5,349.2c-4.2,0-7.7-2.3-7.7-9.7c0-6.2,3.8-9.7,8.3-9.7c4.1,0,7.7,2.3,7.7,9.5C230.7,345.7,226.9,349.2,222.5,349.2z
			 M222.7,332.2c-2.6,0-4.9,2.1-4.9,7.3c0,5.2,2,7.6,4.9,7.6c2.6,0,4.9-2.1,4.9-7.2C227.6,334.4,225.6,332.2,222.7,332.2z"/>
		<path d="M273,348.9v-2.6h5.6v-13.2l-5.5,3.5l-0.9-2.3l7-4.2h2.3v16.3h4.9v2.6L273,348.9L273,348.9z"/>
	</g>
	<text transform="matrix(1 0 0 1 302.4512 348.9209)" class="st4 st5 st8"> </text>
	<g class="st2">
		<path d="M334.6,348.9v-2.3l4.5-4.1c4.1-3.3,4.9-4.8,4.9-6.7c0-2-1.4-3.5-3.8-3.5c-1.8,0-3.5,0.9-4.5,1.7l-0.6-2.6
			c1.7-0.9,3.5-1.7,5.6-1.7c4.2,0,6.4,2.3,6.4,5.6c0,2.7-1.4,4.8-4.9,7.7l-3.8,3.3h-0.2c1.4-0.2,4.9-0.2,9.5-0.2v2.7L334.6,348.9
			L334.6,348.9z"/>
	</g>
	<g class="st2">
		<path d="M216.2,195.7v-2.3l4.5-4.1c4.1-3.3,4.9-4.8,4.9-6.7c0-2-1.4-3.5-3.8-3.5c-1.8,0-3.5,0.9-4.5,1.7l-0.6-2.6
			c1.7-0.9,3.5-1.7,5.6-1.7c4.2,0,6.4,2.3,6.4,5.6c0,2.7-1.4,4.8-4.9,7.7L220,193h-0.2c1.4-0.2,4.9-0.2,9.5-0.2v2.7L216.2,195.7
			L216.2,195.7L216.2,195.7z"/>
	</g>
	<g class="st2">
		<path d="M216.8,261.9v-2.6h5.6v-13.1l-5.5,3.5l-0.9-2.3l7-4.2h2.3v16.3h4.9v2.6L216.8,261.9L216.8,261.9z"/>
	</g>
	<g class="st2">
		<path d="M218.2,386v-2.6h9.8v2.6H218.2z"/>
		<path d="M235.6,394.1v-2.6h5.6v-13.2l-5.5,3.5l-0.9-2.3l7-4.2h2.3v16.3h4.9v2.6L235.6,394.1L235.6,394.1z"/>
	</g>
	<g class="st2">
		<path d="M218.2,452.3v-2.7h9.8v2.6L218.2,452.3L218.2,452.3z"/>
		<path d="M235,460.4V458l4.5-4.1c4.1-3.3,4.9-4.8,4.9-6.7c0-2-1.4-3.5-3.8-3.5c-1.8,0-3.5,0.9-4.5,1.7l-0.6-2.6
			c1.7-0.9,3.5-1.7,5.6-1.7c4.2,0,6.4,2.3,6.4,5.6c0,2.7-1.4,4.8-4.9,7.7l-3.8,3.3h-0.2c1.4-0.2,4.9-0.2,9.5-0.2v2.7L235,460.4
			L235,460.4z"/>
	</g>
	<text transform="matrix(1 0 0 1 298.5288 157.1514)" class="st4 st9 st10"> </text>
	<text transform="matrix(1 0 0 1 475.2344 157.1514)" class="st4 st9 st11"> </text>
	<g>
		<rect x="647.5" y="118.9" class="st1" width="388.6" height="388.6"/>
		<line class="st1" x1="647.5" y1="442.7" x2="1035.9" y2="442.7"/>
		<line class="st1" x1="647.5" y1="377.7" x2="1035.9" y2="377.7"/>
		<line class="st1" x1="647.5" y1="313.2" x2="1035.9" y2="313.2"/>
		<line class="st1" x1="647.5" y1="248.4" x2="1035.9" y2="248.4"/>
		<line class="st1" x1="647.5" y1="183.6" x2="1035.9" y2="183.6"/>
		<line class="st1" x1="971.2" y1="118.9" x2="971.2" y2="507.6"/>
		<line class="st1" x1="906.5" y1="118.9" x2="906.5" y2="507.6"/>
		<line class="st1" x1="841.6" y1="118.9" x2="841.6" y2="507.6"/>
		<line class="st1" x1="776.7" y1="118.9" x2="776.7" y2="507.6"/>
		<line class="st1" x1="712.2" y1="118.9" x2="712.2" y2="507.6"/>
	</g>
	<g class="st2">
		<path d="M655.1,25.5l-3.5-5.8l-3.5,5.8h-4.8v-1.8c0.9-0.2,1.8-0.4,2.7-0.4l3.8-5.6l-3.7-5.6c-0.9,0-1.8-0.2-2.6-0.4v-1.7h4.8
			l3.3,5.6l3.5-5.6h4.5v1.7c-0.9,0.2-1.8,0.4-2.7,0.4l-3.5,5.5l3.8,5.8c0.9,0,1.7,0.2,2.6,0.4v1.7L655.1,25.5L655.1,25.5L655.1,25.5
			z"/>
	</g>
	<g class="st2">
		<path d="M559.2,110.2l-5.5,15.2c-1.7,4.8-3.3,6.4-6.7,6.4c-0.6,0-1.4,0-2.1-0.2l0.2-2.6c0.7,0.2,1.4,0.4,2,0.4
			c1.7,0,2.7-0.9,3.8-3.8l0.7-1.8h-0.7l-4.8-13.6c-0.7,0-1.4-0.2-2-0.4v-1.7h7.2v1.7c-0.6,0.2-1.4,0.4-2,0.4l2.3,6.7
			c0.6,1.4,0.9,2.6,1.4,3.8l0,0c0.2-1.1,0.9-2.9,1.4-4.5l2-6c-0.7,0-1.4-0.2-2-0.4V108h7v1.7C560.6,110,560,110,559.2,110.2z"/>
	</g>
	<g class="st2">
		<path d="M653,79.2c-4.2,0-7.7-2.3-7.7-9.7c0-6.2,3.8-9.7,8.3-9.7c4.1,0,7.7,2.3,7.7,9.5C661.2,75.8,657.5,79.2,653,79.2z
			 M653.3,62.1c-2.6,0-4.9,2.1-4.9,7.3c0,5.2,2,7.6,4.9,7.6c2.6,0,4.9-2.1,4.9-7.2C658.2,64.5,656.3,62.1,653.3,62.1z"/>
	</g>
	<g class="st2">
		<path d="M709.9,78.9v-2.6h5.6V63.2l-5.5,3.5l-0.9-2.3l7-4.2h2.3v16.3h4.9V79L709.9,78.9L709.9,78.9z"/>
	</g>
	<g class="st2">
		<path d="M771.9,78.9v-2.3l4.5-4.1c4.1-3.3,4.9-4.8,4.9-6.7c0-2-1.4-3.5-3.8-3.5c-1.8,0-3.5,0.9-4.5,1.7l-0.5-2.6
			c1.7-0.9,3.5-1.7,5.6-1.7c4.2,0,6.4,2.3,6.4,5.6c0,2.7-1.4,4.8-4.9,7.7l-3.8,3.3h-0.2C777,76,780.5,76,785,76v2.7L771.9,78.9
			L771.9,78.9L771.9,78.9z"/>
	</g>
	<g class="st2">
		<path d="M838.9,81.8c-1.4,0-2.7-0.2-3.8-0.6l0.6-2.6c1.1,0.4,2.3,0.6,3.8,0.6c3.3,0,5.5-1.8,5.5-4.2c0-2.3-1.8-3.8-5.2-3.8
			c-1.1,0-1.8,0-2.7,0.2v-2.3h0.7c4.5,0,6.7-1.4,6.7-3.8c0-2-1.4-3.1-3.8-3.1c-1.7,0-3.1,0.6-4.4,1.4l-0.6-2.3
			c1.7-0.7,3.3-1.1,5.5-1.1c4.2,0,6.2,2,6.2,4.9c0,2.3-1.4,4.2-3.8,4.9l0,0c2.6,0.4,4.5,2.6,4.5,5.2
			C847.8,78.9,844.1,81.8,838.9,81.8z"/>
	</g>
	<g class="st2">
		<path d="M908.4,76.1v5.2h-2.7v-5.2H896l-0.2-2.3l8.7-13.9h4.1v13.6h3.7V76L908.4,76.1L908.4,76.1L908.4,76.1L908.4,76.1z
			 M905.7,62.5L905.7,62.5l-7.2,11.1c1.8,0,5.8,0,7.2,0V62.5z"/>
	</g>
	<g class="st2">
		<path d="M964,81.8c-0.9,0-2.3-0.2-3.5-0.4l0.2-2.6c1.1,0.4,2.6,0.4,3.5,0.4c3.8,0,5.8-2.1,5.8-4.8c0-2.7-2.1-4.1-5.6-4.1
			c-1.4,0-2.3,0.2-3.3,0.2V59.8h11v2.7h-8.4v5.5c0.6,0,1.1,0,1.4,0c5.2,0,7.9,2.7,7.9,6C973.4,78.5,969.6,81.8,964,81.8z"/>
	</g>
	<g class="st2">
		<path d="M1029.7,79.2c-4.4,0-7.2-3.3-7.2-9c0-9,4.4-12.8,10.5-12.8c0.6,0,1.4,0,1.8,0.2v2.6c-0.7-0.2-1.4-0.2-2-0.2
			c-4.1,0-6.2,2.3-7.2,6.7c-0.2,0.4-0.2,0.9-0.4,1.7l0,0c1.1-1.8,2.9-2.7,4.9-2.7c4.2,0,6.4,2.7,6.4,6.2
			C1036.9,76.1,1033.9,79.2,1029.7,79.2z M1029.7,68c-2.6,0-4.1,2.1-4.1,4.1c0,2.6,1.4,4.8,4.2,4.8c2.6,0,4.1-1.8,4.1-4.5
			C1033.9,69.5,1032.5,68,1029.7,68z"/>
	</g>
	<circle cx="647.5" cy="118.9" r="10.1"/>
	<circle cx="204.7" cy="312.3" r="10.1"/>
	<g class="st2">
		<path d="M604.3,133.1c-4.2,0-7.7-2.3-7.7-9.7c0-6.2,3.8-9.7,8.3-9.7c4.1,0,7.7,2.3,7.7,9.5C612.6,129.6,608.7,133.1,604.3,133.1z
			 M604.6,116.3c-2.6,0-4.9,2.1-4.9,7.3c0,5.2,2,7.6,4.9,7.6c2.6,0,4.9-2.1,4.9-7.2C609.5,118.4,607.5,116.3,604.6,116.3z"/>
	</g>
	<g class="st2">
		<path d="M598.4,195.7v-2.6h5.6v-13.2l-5.5,3.5l-0.9-2.3l7-4.2h2.3v16.3h4.9v2.6L598.4,195.7L598.4,195.7z"/>
	</g>
	<g class="st2">
		<path d="M597.8,258.4v-2.3l4.5-4.1c4.1-3.3,4.9-4.8,4.9-6.7c0-2-1.4-3.5-3.8-3.5c-1.8,0-3.5,0.9-4.5,1.7l-0.6-2.6
			c1.7-0.9,3.5-1.7,5.6-1.7c4.2,0,6.4,2.3,6.4,5.6c0,2.7-1.4,4.8-4.9,7.7l-3.8,3.3h-0.2c1.4-0.2,4.9-0.2,9.5-0.2v2.7L597.8,258.4
			L597.8,258.4L597.8,258.4z"/>
	</g>
	<g class="st2">
		<path d="M601.9,324c-1.4,0-2.7-0.2-3.8-0.6l0.6-2.6c1.1,0.4,2.3,0.6,3.8,0.6c3.3,0,5.5-1.8,5.5-4.2c0-2.4-1.8-3.8-5.2-3.8
			c-1.1,0-1.8,0-2.7,0.2v-2.3h0.7c4.5,0,6.7-1.4,6.7-3.8c0-2-1.4-3.1-3.8-3.1c-1.7,0-3.1,0.6-4.4,1.4l-0.6-2.4
			c1.7-0.7,3.3-1.1,5.5-1.1c4.2,0,6.2,2,6.2,4.9c0,2.3-1.4,4.2-3.8,4.9l0,0c2.6,0.4,4.5,2.6,4.5,5.2
			C610.8,321.1,607.2,324,601.9,324z"/>
	</g>
	<g class="st2">
		<path d="M608.9,381.1v5.2h-2.7v-5.2h-9.7l-0.2-2.3l8.7-13.9h4.1v13.6h3.7v2.6L608.9,381.1L608.9,381.1z M606.1,367.5L606.1,367.5
			l-7.2,11.1c1.8,0,5.8,0,7.2,0V367.5z"/>
	</g>
	<g class="st2">
		<path d="M601.8,449.3c-0.9,0-2.3-0.2-3.5-0.4l0.2-2.6c1.1,0.4,2.6,0.4,3.5,0.4c3.8,0,5.8-2.1,5.8-4.8c0-2.7-2.1-4.1-5.6-4.1
			c-1.4,0-2.3,0.2-3.3,0.2v-10.7h11v2.7h-8.4v5.5c0.6,0,1.1,0,1.4,0c5.2,0,7.9,2.7,7.9,6C610.9,446.1,607.4,449.3,601.8,449.3z"/>
	</g>
	<g class="st2">
		<path d="M604.6,509.5c-4.4,0-7.2-3.3-7.2-9c0-9,4.4-12.8,10.5-12.8c0.6,0,1.4,0,1.8,0.2v2.6c-0.7-0.2-1.4-0.2-2-0.2
			c-4.1,0-6.2,2.3-7.2,6.7c-0.2,0.4-0.2,0.9-0.4,1.7l0,0c1.1-1.8,2.9-2.7,4.9-2.7c4.2,0,6.6,2.7,6.6,6.2
			C611.6,506.6,608.7,509.5,604.6,509.5z M604.7,498.3c-2.6,0-4.1,2.1-4.1,4.1c0,2.6,1.4,4.8,4.2,4.8c2.6,0,4.1-1.8,4.1-4.5
			C608.7,500,607.4,498.3,604.7,498.3z"/>
	</g>
	<line class="st3" x1="648.9" y1="118.9" x2="636.7" y2="118.9"/>
	<line class="st3" x1="648.9" y1="184" x2="636.7" y2="184"/>
	<line class="st3" x1="648.9" y1="248.4" x2="636.7" y2="248.4"/>
	<line class="st3" x1="648.9" y1="313" x2="636.7" y2="313"/>
	<line class="st3" x1="648.9" y1="378.1" x2="636.7" y2="378.1"/>
	<line class="st3" x1="648.9" y1="443.5" x2="636.7" y2="443.5"/>
	<line class="st3" x1="648.9" y1="507" x2="636.7" y2="507"/>
	<line class="st3" x1="1035.3" y1="118.7" x2="1035.3" y2="106.5"/>
	<line class="st3" x1="970.3" y1="118.7" x2="970.3" y2="106.5"/>
	<line class="st3" x1="905.7" y1="118.7" x2="905.7" y2="106.5"/>
	<line class="st3" x1="841.2" y1="118.7" x2="841.2" y2="106.5"/>
	<line class="st3" x1="776.3" y1="118.7" x2="776.3" y2="106.5"/>
	<line class="st3" x1="710.6" y1="118.7" x2="710.6" y2="106.5"/>
	<line class="st3" x1="647.5" y1="118.7" x2="647.5" y2="106.5"/>
	<polyline class="st12" points="560,237.7 552.2,245.2 544.6,237.7 	"/>
	<line class="st3" x1="552.2" y1="245.2" x2="552.2" y2="154.3"/>
	<polyline class="st12" points="766.2,8.3 773.8,16 766.2,23.6 	"/>
	<line class="st3" x1="775.6" y1="16" x2="684.8" y2="16"/>
	<g id="Layer_2_1_">
	</g>
	<rect x="629" y="514.8" class="st13" width="87.2" height="38.6"/>
	<text transform="matrix(1 0 0 1 628.9749 531.8672)" class="st14 st15 st16">(0,6)</text>
	<rect x="1002.4" y="514.8" class="st13" width="87.2" height="38.6"/>
	<text transform="matrix(1 0 0 1 1002.4036 531.8672)" class="st14 st15 st16">(6,6)</text>
	<rect x="627" y="87.2" class="st13" width="87.2" height="38.6"/>
	<text transform="matrix(1 0 0 1 627.0416 104.2338)" class="st14 st15 st16">(0,0)</text>
	<rect x="1002.4" y="87.9" class="st13" width="87.2" height="38.6"/>
	<text transform="matrix(1 0 0 1 1002.4036 104.9038)" class="st14 st15 st16">(6,0)</text>
	<rect x="776.7" y="183.6" class="st17" width="194.5" height="64.8"/>
	<line class="st18" x1="710.6" y1="313" x2="906.5" y2="442.7"/>
	<rect x="754.2" y="157.2" class="st13" width="87.2" height="38.6"/>
	<text transform="matrix(1 0 0 1 754.1602 174.2338)" class="st14 st15 st16">(2,1)</text>
	<rect x="947.4" y="157.2" class="st13" width="87.2" height="38.6"/>
	<text transform="matrix(1 0 0 1 947.389 174.2338)" class="st14 st15 st16">(5,1)</text>
	<rect x="948.9" y="252.6" class="st13" width="87.2" height="38.6"/>
	<text transform="matrix(1 0 0 1 948.925 269.6538)" class="st14 st15 st16">(5,2)</text>
	<rect x="754.2" y="252.6" class="st13" width="87.2" height="38.6"/>
	<text transform="matrix(1 0 0 1 754.1602 269.6538)" class="st14 st15 st16">(2,2)</text>
	<rect x="691.9" y="286.1" class="st13" width="87.2" height="38.6"/>
	<text transform="matrix(1 0 0 1 691.8524 303.1738)" class="st14 st15 st16">(1,3)</text>
	<rect x="887.9" y="449.3" class="st13" width="87.2" height="38.6"/>
	<text transform="matrix(1 0 0 1 887.9089 466.3578)" class="st14 st15 st16">(4,5)</text>
	<rect x="770" y="283.9" class="st13" width="450.3" height="96.6"/>
	<text transform="matrix(1 0 0 1 769.999 300.9343)"><tspan x="0" y="0" class="st19 st15 st16">rect(x, y, width, height)</tspan><tspan x="0" y="28.8" class="st20 st15 st16">rect(2, 1, 3, 1)</tspan></text>
	<rect x="680.6" y="412.1" class="st13" width="450.3" height="96.6"/>
	<text transform="matrix(1 0 0 1 680.5543 429.1163)"><tspan x="0" y="0" class="st19 st15 st16">line(x1, y1, x2, y2)</tspan><tspan x="0" y="28.8" class="st21 st15 st16">line(1, 3, 4, 5)</tspan></text>
</g>
<g id="Shapes">
</g>
</svg>
