<?xml version="1.0" encoding="utf-8"?>
<!-- Generator: Adobe Illustrator 24.3.0, SVG Export Plug-In . SVG Version: 6.00 Build 0)  -->
<svg version="1.1" xmlns="http://www.w3.org/2000/svg" xmlns:xlink="http://www.w3.org/1999/xlink" x="0px" y="0px"
	 viewBox="0 0 1046 600" style="enable-background:new 0 0 1046 600;" xml:space="preserve">
<style type="text/css">
	.st0{opacity:0.5;fill:#FFFF00;enable-background:new    ;}
	.st1{fill:none;stroke:#999999;stroke-width:1.3;}
	.st2{enable-background:new    ;}
	.st3{fill:none;stroke:#000000;stroke-width:1.3;}
	.st4{fill:#FFFFFF;stroke:#000000;stroke-width:1.3;}
	.st5{fill:none;}
	.st6{fill:#FFFFFF;stroke:#D20000;stroke-miterlimit:10;}
	.st7{font-family:'MyriadPro-Regular';}
	.st8{font-size:24px;}
	.st9{fill:#FF00E2;stroke:#999999;stroke-width:1.3;}
	.st10{fill:#999999;stroke:#1800D0;stroke-width:4;}
	.st11{fill:#FFFFFF;stroke:#000000;stroke-miterlimit:10;}
	.st12{fill:#FFFFFF;stroke:#F400AC;stroke-miterlimit:10;}
	.st13{fill:#FFFFFF;stroke:#0000FF;stroke-miterlimit:10;}
	.st14{stroke:#FF0000;stroke-width:3;stroke-miterlimit:10;}
	.st15{fill:#BE1E2D;}
	.st16{fill:#ED1C24;}
	.st17{fill:#010101;}
	.st18{fill:#202020;}
	.st19{font-size:26px;}
	.st20{fill:none;stroke:#000000;stroke-width:3;}
</style>
<g id="Coords">
	<rect x="521.5" y="117.3" class="st0" width="388.6" height="390.2"/>
	<g>
		<rect x="521.5" y="118.9" class="st1" width="388.6" height="388.6"/>
		<line class="st1" x1="521.5" y1="442.7" x2="909.9" y2="442.7"/>
		<line class="st1" x1="521.5" y1="377.7" x2="909.9" y2="377.7"/>
		<line class="st1" x1="521.5" y1="313.2" x2="909.9" y2="313.2"/>
		<line class="st1" x1="521.5" y1="248.4" x2="909.9" y2="248.4"/>
		<line class="st1" x1="521.5" y1="183.6" x2="909.9" y2="183.6"/>
		<line class="st1" x1="845.2" y1="118.9" x2="845.2" y2="507.6"/>
		<line class="st1" x1="780.5" y1="118.9" x2="780.5" y2="507.6"/>
		<line class="st1" x1="715.6" y1="118.9" x2="715.6" y2="507.6"/>
		<line class="st1" x1="650.7" y1="118.9" x2="650.7" y2="507.6"/>
		<line class="st1" x1="586.2" y1="118.9" x2="586.2" y2="507.6"/>
	</g>
	<g class="st2">
		<path d="M529.1,37.5l-3.5-5.8l-3.5,5.8h-4.8v-1.8c0.9-0.2,1.8-0.4,2.7-0.4l3.8-5.6l-3.7-5.6c-0.9,0-1.8-0.2-2.6-0.4v-1.7h4.8
			l3.3,5.6l3.5-5.6h4.5v1.7c-0.9,0.2-1.8,0.4-2.7,0.4l-3.5,5.5l3.8,5.8c0.9,0,1.7,0.2,2.6,0.4v1.7L529.1,37.5L529.1,37.5L529.1,37.5
			z"/>
	</g>
	<g class="st2">
		<path d="M433.2,110.2l-5.5,15.2c-1.7,4.8-3.3,6.4-6.7,6.4c-0.6,0-1.4,0-2.1-0.2l0.2-2.6c0.7,0.2,1.4,0.4,2,0.4
			c1.7,0,2.7-0.9,3.8-3.8l0.7-1.8h-0.7l-4.8-13.6c-0.7,0-1.4-0.2-2-0.4v-1.7h7.2v1.7c-0.6,0.2-1.4,0.4-2,0.4l2.3,6.7
			c0.6,1.4,0.9,2.6,1.4,3.8l0,0c0.2-1.1,0.9-2.9,1.4-4.5l2-6c-0.7,0-1.4-0.2-2-0.4V108h7v1.7C434.6,110,434,110,433.2,110.2z"/>
	</g>
	<g class="st2">
		<path d="M527,79.2c-4.2,0-7.7-2.3-7.7-9.7c0-6.2,3.8-9.7,8.3-9.7c4.1,0,7.7,2.3,7.7,9.5C535.2,75.8,531.5,79.2,527,79.2z
			 M527.3,62.1c-2.6,0-4.9,2.1-4.9,7.3c0,5.2,2,7.6,4.9,7.6c2.6,0,4.9-2.1,4.9-7.2C532.2,64.5,530.3,62.1,527.3,62.1z"/>
	</g>
	<g class="st2">
		<path d="M583.9,78.9v-2.6h5.6V63.2l-5.5,3.5l-0.9-2.3l7-4.2h2.3v16.3h4.9V79L583.9,78.9L583.9,78.9z"/>
	</g>
	<g class="st2">
		<path d="M645.9,78.9v-2.3l4.5-4.1c4.1-3.3,4.9-4.8,4.9-6.7c0-2-1.4-3.5-3.8-3.5c-1.8,0-3.5,0.9-4.5,1.7l-0.5-2.6
			c1.7-0.9,3.5-1.7,5.6-1.7c4.2,0,6.4,2.3,6.4,5.6c0,2.7-1.4,4.8-4.9,7.7l-3.8,3.3h-0.2C651,76,654.5,76,659,76v2.7L645.9,78.9
			L645.9,78.9L645.9,78.9z"/>
	</g>
	<g class="st2">
		<path d="M712.9,81.8c-1.4,0-2.7-0.2-3.8-0.6l0.6-2.6c1.1,0.4,2.3,0.6,3.8,0.6c3.3,0,5.5-1.8,5.5-4.2c0-2.3-1.8-3.8-5.2-3.8
			c-1.1,0-1.8,0-2.7,0.2v-2.3h0.7c4.5,0,6.7-1.4,6.7-3.8c0-2-1.4-3.1-3.8-3.1c-1.7,0-3.1,0.6-4.4,1.4l-0.6-2.3
			c1.7-0.7,3.3-1.1,5.5-1.1c4.2,0,6.2,2,6.2,4.9c0,2.3-1.4,4.2-3.8,4.9l0,0c2.6,0.4,4.5,2.6,4.5,5.2
			C721.8,78.9,718.1,81.8,712.9,81.8z"/>
	</g>
	<g class="st2">
		<path d="M782.4,76.1v5.2h-2.7v-5.2H770l-0.2-2.3l8.7-13.9h4.1v13.6h3.7V76L782.4,76.1L782.4,76.1L782.4,76.1L782.4,76.1z
			 M779.7,62.5L779.7,62.5l-7.2,11.1c1.8,0,5.8,0,7.2,0V62.5z"/>
	</g>
	<g class="st2">
		<path d="M838,81.8c-0.9,0-2.3-0.2-3.5-0.4l0.2-2.6c1.1,0.4,2.6,0.4,3.5,0.4c3.8,0,5.8-2.1,5.8-4.8c0-2.7-2.1-4.1-5.6-4.1
			c-1.4,0-2.3,0.2-3.3,0.2V59.8h11v2.7h-8.4v5.5c0.6,0,1.1,0,1.4,0c5.2,0,7.9,2.7,7.9,6C847.4,78.5,843.6,81.8,838,81.8z"/>
	</g>
	<g class="st2">
		<path d="M903.7,79.2c-4.4,0-7.2-3.3-7.2-9c0-9,4.4-12.8,10.5-12.8c0.6,0,1.4,0,1.8,0.2v2.6c-0.7-0.2-1.4-0.2-2-0.2
			c-4.1,0-6.2,2.3-7.2,6.7c-0.2,0.4-0.2,0.9-0.4,1.7l0,0c1.1-1.8,2.9-2.7,4.9-2.7c4.2,0,6.4,2.7,6.4,6.2
			C910.9,76.1,907.9,79.2,903.7,79.2z M903.7,68c-2.6,0-4.1,2.1-4.1,4.1c0,2.6,1.4,4.8,4.2,4.8c2.6,0,4.1-1.8,4.1-4.5
			C907.9,69.5,906.5,68,903.7,68z"/>
	</g>
	<circle cx="521.5" cy="118.9" r="10.1"/>
	<g class="st2">
		<path d="M478.3,133.1c-4.2,0-7.7-2.3-7.7-9.7c0-6.2,3.8-9.7,8.3-9.7c4.1,0,7.7,2.3,7.7,9.5C486.6,129.6,482.7,133.1,478.3,133.1z
			 M478.6,116.3c-2.6,0-4.9,2.1-4.9,7.3c0,5.2,2,7.6,4.9,7.6c2.6,0,4.9-2.1,4.9-7.2C483.5,118.4,481.5,116.3,478.6,116.3z"/>
	</g>
	<g class="st2">
		<path d="M472.4,195.7v-2.6h5.6v-13.2l-5.5,3.5l-0.9-2.3l7-4.2h2.3v16.3h4.9v2.6L472.4,195.7L472.4,195.7z"/>
	</g>
	<g class="st2">
		<path d="M471.8,258.4v-2.3l4.5-4.1c4.1-3.3,4.9-4.8,4.9-6.7c0-2-1.4-3.5-3.8-3.5c-1.8,0-3.5,0.9-4.5,1.7l-0.6-2.6
			c1.7-0.9,3.5-1.7,5.6-1.7c4.2,0,6.4,2.3,6.4,5.6c0,2.7-1.4,4.8-4.9,7.7l-3.8,3.3h-0.2c1.4-0.2,4.9-0.2,9.5-0.2v2.7L471.8,258.4
			L471.8,258.4L471.8,258.4z"/>
	</g>
	<g class="st2">
		<path d="M475.9,324c-1.4,0-2.7-0.2-3.8-0.6l0.6-2.6c1.1,0.4,2.3,0.6,3.8,0.6c3.3,0,5.5-1.8,5.5-4.2c0-2.4-1.8-3.8-5.2-3.8
			c-1.1,0-1.8,0-2.7,0.2v-2.3h0.7c4.5,0,6.7-1.4,6.7-3.8c0-2-1.4-3.1-3.8-3.1c-1.7,0-3.1,0.6-4.4,1.4l-0.6-2.4
			c1.7-0.7,3.3-1.1,5.5-1.1c4.2,0,6.2,2,6.2,4.9c0,2.3-1.4,4.2-3.8,4.9l0,0c2.6,0.4,4.5,2.6,4.5,5.2
			C484.8,321.1,481.2,324,475.9,324z"/>
	</g>
	<g class="st2">
		<path d="M482.9,381.1v5.2h-2.7v-5.2h-9.7l-0.2-2.3l8.7-13.9h4.1v13.6h3.7v2.6L482.9,381.1L482.9,381.1z M480.1,367.5L480.1,367.5
			l-7.2,11.1c1.8,0,5.8,0,7.2,0V367.5z"/>
	</g>
	<g class="st2">
		<path d="M475.8,449.3c-0.9,0-2.3-0.2-3.5-0.4l0.2-2.6c1.1,0.4,2.6,0.4,3.5,0.4c3.8,0,5.8-2.1,5.8-4.8c0-2.7-2.1-4.1-5.6-4.1
			c-1.4,0-2.3,0.2-3.3,0.2v-10.7h11v2.7h-8.4v5.5c0.6,0,1.1,0,1.4,0c5.2,0,7.9,2.7,7.9,6C484.9,446.1,481.4,449.3,475.8,449.3z"/>
	</g>
	<g class="st2">
		<path d="M478.6,509.5c-4.4,0-7.2-3.3-7.2-9c0-9,4.4-12.8,10.5-12.8c0.6,0,1.4,0,1.8,0.2v2.6c-0.7-0.2-1.4-0.2-2-0.2
			c-4.1,0-6.2,2.3-7.2,6.7c-0.2,0.4-0.2,0.9-0.4,1.7l0,0c1.1-1.8,2.9-2.7,4.9-2.7c4.2,0,6.6,2.7,6.6,6.2
			C485.6,506.6,482.7,509.5,478.6,509.5z M478.7,498.3c-2.6,0-4.1,2.1-4.1,4.1c0,2.6,1.4,4.8,4.2,4.8c2.6,0,4.1-1.8,4.1-4.5
			C482.7,500,481.4,498.3,478.7,498.3z"/>
	</g>
	<line class="st3" x1="522.9" y1="118.9" x2="510.7" y2="118.9"/>
	<line class="st3" x1="522.9" y1="184" x2="510.7" y2="184"/>
	<line class="st3" x1="522.9" y1="248.4" x2="510.7" y2="248.4"/>
	<line class="st3" x1="522.9" y1="313" x2="510.7" y2="313"/>
	<line class="st3" x1="522.9" y1="378.1" x2="510.7" y2="378.1"/>
	<line class="st3" x1="522.9" y1="443.5" x2="510.7" y2="443.5"/>
	<line class="st3" x1="522.9" y1="507" x2="510.7" y2="507"/>
	<line class="st3" x1="909.3" y1="118.7" x2="909.3" y2="106.5"/>
	<line class="st3" x1="844.3" y1="118.7" x2="844.3" y2="106.5"/>
	<line class="st3" x1="779.7" y1="118.7" x2="779.7" y2="106.5"/>
	<line class="st3" x1="715.2" y1="118.7" x2="715.2" y2="106.5"/>
	<line class="st3" x1="650.3" y1="118.7" x2="650.3" y2="106.5"/>
	<line class="st3" x1="584.6" y1="118.7" x2="584.6" y2="106.5"/>
	<line class="st3" x1="521.5" y1="118.7" x2="521.5" y2="106.5"/>
	<polyline class="st4" points="434,237.7 426.2,245.2 418.6,237.7 	"/>
	<line class="st3" x1="426.2" y1="245.2" x2="426.2" y2="154.3"/>
	<polyline class="st4" points="644.2,20.3 651.8,28 644.2,35.6 	"/>
	<line class="st3" x1="649.6" y1="28" x2="558.8" y2="28"/>
	<g id="Layer_2_1_">
	</g>
	<rect x="503" y="514.8" class="st5" width="87.2" height="38.6"/>
	<text transform="matrix(1 0 0 1 502.9749 531.8672)" class="st6 st7 st8">(0,6)</text>
	<rect x="876.4" y="514.8" class="st5" width="87.2" height="38.6"/>
	<text transform="matrix(1 0 0 1 876.4036 531.8672)" class="st6 st7 st8">(6,6)</text>
	<rect x="501" y="87.2" class="st5" width="87.2" height="38.6"/>
	<text transform="matrix(1 0 0 1 501.0416 104.2338)" class="st6 st7 st8">(0,0)</text>
	<rect x="876.4" y="87.9" class="st5" width="87.2" height="38.6"/>
	<text transform="matrix(1 0 0 1 876.4036 104.9038)" class="st6 st7 st8">(6,0)</text>
	<rect x="650.7" y="183.6" class="st9" width="194.5" height="64.8"/>
	<line class="st10" x1="584.6" y1="313" x2="780.5" y2="442.7"/>
	<rect x="628.2" y="148.2" class="st5" width="87.2" height="38.6"/>
	<text transform="matrix(1 0 0 1 628.1602 165.2338)" class="st6 st7 st8">(2,1)</text>
	<rect x="821.4" y="157.2" class="st5" width="87.2" height="38.6"/>
	<text transform="matrix(1 0 0 1 821.389 174.2338)" class="st6 st7 st8">(5,1)</text>
	<rect x="822.9" y="252.6" class="st5" width="87.2" height="38.6"/>
	<text transform="matrix(1 0 0 1 822.925 269.6538)" class="st6 st7 st8">(5,2)</text>
	<rect x="628.2" y="252.6" class="st5" width="87.2" height="38.6"/>
	<text transform="matrix(1 0 0 1 628.1602 269.6538)" class="st6 st7 st8">(2,2)</text>
	<rect x="565.9" y="286.1" class="st5" width="87.2" height="38.6"/>
	<text transform="matrix(1 0 0 1 565.8524 303.1738)" class="st6 st7 st8">(1,3)</text>
	<rect x="761.9" y="449.3" class="st5" width="87.2" height="38.6"/>
	<text transform="matrix(1 0 0 1 761.9089 466.3578)" class="st6 st7 st8">(4,5)</text>
	<rect x="72.7" y="170.7" class="st5" width="450.3" height="96.6"/>
	<text transform="matrix(1 0 0 1 72.6848 187.7523)"><tspan x="0" y="0" class="st11 st7 st8">rect(x, y, width, height)</tspan><tspan x="0" y="28.8" class="st12 st7 st8">fill(”pink”); </tspan><tspan x="0" y="57.6" class="st12 st7 st8">rect(2, 1, 3, 1);</tspan></text>
	<rect x="73.5" y="354.1" class="st5" width="450.3" height="96.6"/>
	<text transform="matrix(1 0 0 1 73.5065 371.1243)"><tspan x="0" y="0" class="st11 st7 st8">line(x1, y1, x2, y2)</tspan><tspan x="0" y="28.8" class="st13 st7 st8">stroke(”blue”);</tspan><tspan x="0" y="57.6" class="st13 st7 st8">line(1, 3, 4, 5);</tspan></text>
	<rect x="49.5" y="44.6" class="st5" width="283.4" height="84.2"/>
	<text transform="matrix(1 0 0 1 49.5259 61.666)"><tspan x="0" y="0" class="st7 st8">Code for drawing a pink </tspan><tspan x="0" y="28.8" class="st7 st8">rectange and a blue line on </tspan><tspan x="0" y="57.6" class="st7 st8">a 6x6 canvas as shown right</tspan></text>
	<rect x="535" y="139.5" class="st5" width="82.2" height="29.7"/>
	<text transform="matrix(1 0 0 1 535.0293 156.4957)" class="st7 st8">anchor</text>
	<path d="M644,186.3"/>
	<line x1="918.1" y1="-89.3" x2="952.6" y2="-80.1"/>
	<path class="st14" d="M640.5,189.3"/>
	<path class="st14" d="M605.9,180.2"/>
	<g>
		<line x1="606.4" y1="156.3" x2="641" y2="182.2"/>
		<g>
			<g>
				<g>
					<polygon class="st5" points="610.4,152.6 608,155.8 607.4,156.6 607,157.1 606.3,158 604,161.1 611.7,166.9 614.1,163.8 
						614.8,162.9 615.1,162.4 615.8,161.6 618.1,158.4 					"/>
					
						<rect x="610.3" y="154.6" transform="matrix(0.599 -0.8008 0.8008 0.599 116.661 553.0389)" class="st15" width="0.4" height="10.9"/>
					<polygon class="st15" points="615.4,162.6 615.6,162.3 606.8,155.8 606.6,156.1 606.6,156.1 615.4,162.7 					"/>
					<polygon class="st16" points="615,163.1 615.4,162.7 606.6,156.1 606.3,156.6 606.2,156.6 615,163.2 					"/>
					
						<rect x="605.6" y="156" transform="matrix(0.599 -0.8008 0.8008 0.599 117.8511 548.9899)" class="st17" width="2.8" height="1.6"/>
					
						<rect x="606.5" y="157" transform="matrix(0.599 -0.8008 0.8008 0.599 117.7084 549.8914)" class="st15" width="2.8" height="0.8"/>
					<polygon class="st17" points="614.4,164 614.7,163.5 606,156.9 605.6,157.4 605.6,157.5 614.3,164 					"/>
					
						<rect x="611.1" y="153.3" transform="matrix(0.599 -0.8008 0.8008 0.599 118.0534 553.2903)" class="st17" width="0.7" height="10.9"/>
				</g>
				<g>
					<polygon class="st5" points="618.9,159 616.5,162.1 615.9,163 615.5,163.5 614.9,164.4 612.5,167.5 620.3,173.3 622.6,170.2 
						623.3,169.3 623.7,168.8 624.3,167.9 626.6,164.8 					"/>
					<g>
						<polygon class="st17" points="623.1,170.5 623.5,170 614.7,163.5 614.4,164 614.3,164 623.1,170.6 						"/>
						
							<rect x="619.8" y="159.9" transform="matrix(0.599 -0.8008 0.8008 0.599 116.3207 562.928)" class="st17" width="0.7" height="10.9"/>
						
							<rect x="619" y="161.1" transform="matrix(0.599 -0.8008 0.8008 0.599 114.9291 562.6777)" class="st15" width="0.4" height="10.9"/>
						<polygon class="st15" points="624.2,169.1 624.4,168.9 615.6,162.3 615.4,162.6 615.4,162.7 624.1,169.2 						"/>
						<polygon class="st16" points="623.8,169.7 624.1,169.2 615.4,162.7 615,163.1 615,163.2 623.7,169.7 						"/>
					</g>
				</g>
				<g>
					<polygon class="st5" points="627.6,165.5 625.3,168.7 624.7,169.5 624.3,170 623.6,170.9 621.3,174 629,179.9 631.4,176.7 
						632,175.8 632.4,175.3 633,174.5 635.4,171.3 					"/>
					<g>
						<polygon class="st17" points="631.9,177.1 632.3,176.6 623.5,170 623.1,170.5 623.1,170.6 631.8,177.1 						"/>
						
							<rect x="628.6" y="166.4" transform="matrix(0.599 -0.8008 0.8008 0.599 114.5862 572.5634)" class="st17" width="0.7" height="10.9"/>
						
							<rect x="627.8" y="167.7" transform="matrix(0.599 -0.8008 0.8008 0.599 113.1947 572.3132)" class="st15" width="0.4" height="10.9"/>
						<polygon class="st15" points="632.9,175.7 633.1,175.4 624.4,168.9 624.2,169.1 624.1,169.2 632.9,175.7 						"/>
						<polygon class="st16" points="632.5,176.2 632.9,175.7 624.1,169.2 623.8,169.7 623.7,169.7 632.5,176.3 						"/>
					</g>
				</g>
				<g>
					<polygon class="st5" points="632.4,177.5 630.1,180.6 637.8,186.4 644.2,177.9 636.5,172.1 634.1,175.2 					"/>
					<g>
						<polygon class="st17" points="636.6,180.5 637,180 632.3,176.5 631.9,177 631.9,177.1 636.5,180.6 						"/>
						
							<rect x="635.3" y="173.9" transform="matrix(0.599 -0.8008 0.8008 0.599 113.3165 579.9553)" class="st17" width="0.7" height="5.8"/>
						
							<rect x="634.5" y="175.2" transform="matrix(0.599 -0.8008 0.8008 0.599 111.9255 579.7052)" class="st15" width="0.4" height="5.8"/>
						<polygon class="st15" points="637.6,179.1 637.8,178.9 633.1,175.4 633,175.6 632.9,175.7 637.6,179.2 						"/>
						<polygon class="st16" points="637.2,179.6 637.6,179.2 632.9,175.7 632.6,176.2 632.5,176.2 637.2,179.7 						"/>
					</g>
					
						<rect x="631.8" y="174.4" transform="matrix(0.599 -0.8008 0.8008 0.599 111.9501 582.1036)" class="st5" width="10.6" height="9.7"/>
					<line class="st5" x1="640.9" y1="182.1" x2="632.2" y2="181.4"/>
					<polygon class="st17" points="635.7,177.3 637.4,175.1 639.8,181.2 633.2,180.7 634.9,178.4 634.6,178.3 634.2,178.8 
						632.2,181.4 640.9,182.1 637.8,174 635.9,176.6 635.5,177.1 					"/>
					<path class="st15" d="M633.2,180.7l6.6,0.5l-2.4-6.2l-1.7,2.3l-0.2,0.3l0.1,0.1c0.3-0.2,0.7-0.2,1,0c0.4,0.3,0.4,0.9,0.1,1.3
						c-0.3,0.4-0.9,0.5-1.3,0.2c-0.3-0.2-0.4-0.6-0.3-1l-0.1-0.1l-0.2,0.3L633.2,180.7z"/>
					<path class="st16" d="M635.5,179.2c0.4,0.3,1,0.2,1.3-0.2c0.3-0.4,0.3-1-0.1-1.3c-0.3-0.2-0.7-0.2-1,0
						c-0.1,0.1-0.2,0.1-0.2,0.2c-0.1,0.1-0.1,0.2-0.1,0.3C635.1,178.6,635.2,179,635.5,179.2z"/>
				</g>
			</g>
		</g>
	</g>
	<rect x="715.4" y="144.3" class="st5" width="82.2" height="29.7"/>
	<text transform="matrix(1 0 0 1 715.4113 161.3211)" class="st7 st8">width</text>
	<g>
		<line x1="847.4" y1="137.3" x2="648.5" y2="137.3"/>
		<g>
			<g>
				<path class="st18" d="M837.5,129.7c0,0,4.4,5.9,9.7,7.5c0,0,0.6,0.1,0,0.2c-5.3,1.6-9.7,7.5-9.7,7.5v-4.3l-71.8,0v-3.3l0,0.2
					v-3.3l71.8,0V129.7z"/>
				<path class="st18" d="M658.5,129.7c0,0-4.4,5.9-9.7,7.5c0,0-0.6,0.1,0,0.2c5.3,1.6,9.7,7.5,9.7,7.5v-4.3l74.6,0v-3.3l0,0.2v-3.3
					l-74.6,0V129.7z"/>
			</g>
		</g>
	</g>
	<g>
		<line x1="896.5" y1="245.2" x2="896.5" y2="184"/>
		<g>
			<g>
				<path class="st18" d="M904.1,235.3c0,0-5.9,4.4-7.5,9.7c0,0-0.1,0.6-0.2,0c-1.6-5.3-7.5-9.7-7.5-9.7h4.3l0-5l0-12.4h3.3l-0.2,0
					h3.3l0,12.4l0,5H904.1z"/>
				<path class="st18" d="M904.1,194c0,0-5.9-4.4-7.5-9.7c0,0-0.1-0.6-0.2,0c-1.6,5.3-7.5,9.7-7.5,9.7h4.3l0,4.8l0,13h3.3l-0.2,0
					h3.3l0-13l0-4.8H904.1z"/>
			</g>
		</g>
	</g>
	<rect x="922.5" y="199.8" class="st5" width="82.2" height="29.7"/>
	<text transform="matrix(1 0 0 1 922.4771 216.7992)" class="st7 st8">height</text>
	<rect x="502.3" y="549.4" class="st5" width="430.9" height="32"/>
	<text transform="matrix(1 0 0 1 502.288 567.8115)" class="st7 st19">Computer Graphics Coordinate System</text>
	<text transform="matrix(1 0 0 1 863.9824 617.2031)" class="st7 st8">Lorem ipsum</text>
	<rect x="27.7" y="22.1" class="st20" width="331.9" height="527.3"/>
</g>
<g id="Shapes">
</g>
</svg>
